<svg xmlns="http://www.w3.org/2000/svg" xmlns:xlink="http://www.w3.org/1999/xlink" viewBox="0 0 189.02 237.1">
  <defs>
    <style>
      .cls-1 {
        fill: #404040;
      }

      .cls-2 {
        fill: #853942;
      }

      .cls-3 {
        fill: url(#Dégradé_sans_nom_21);
      }

      .cls-4 {
        fill: url(#Dégradé_sans_nom_21-2);
      }

      .cls-5 {
        fill: url(#Dégradé_sans_nom_21-3);
      }

      .cls-6 {
        fill: url(#Dégradé_sans_nom_21-4);
      }

      .cls-7 {
        fill: url(#Dégradé_sans_nom_21-5);
      }

      .cls-8 {
        fill: url(#Dégradé_sans_nom_21-6);
      }

      .cls-9 {
        fill: url(#Dégradé_sans_nom_21-7);
      }

      .cls-10 {
        fill: url(#Dégradé_sans_nom_21-8);
      }

      .cls-11 {
        fill: url(#Dégradé_sans_nom_21-9);
      }

      .cls-12 {
        fill: url(#Dégradé_sans_nom_21-10);
      }

      .cls-13 {
        fill: url(#Dégradé_sans_nom_21-11);
      }

      .cls-14 {
        fill: url(#Dégradé_sans_nom_21-12);
      }

      .cls-15 {
        fill: url(#Dégradé_sans_nom_21-13);
      }

      .cls-16 {
        fill: url(#Dégradé_sans_nom_21-14);
      }

      .cls-17 {
        fill: url(#Dégradé_sans_nom_21-15);
      }

      .cls-18 {
        fill: url(#Dégradé_sans_nom_21-16);
      }

      .cls-19 {
        fill: url(#Dégradé_sans_nom_21-17);
      }

      .cls-20 {
        fill: url(#Dégradé_sans_nom_21-18);
      }

      .cls-21 {
        fill: url(#Dégradé_sans_nom_21-19);
      }
    </style>
    <linearGradient id="Dégradé_sans_nom_21" data-name="Dégradé sans nom 21" x1="90.66" y1="-8.68" x2="169.92" y2="131.68" gradientUnits="userSpaceOnUse">
      <stop offset="0" stop-color="#ccc08a"/>
      <stop offset="1" stop-color="#9a885f"/>
    </linearGradient>
    <linearGradient id="Dégradé_sans_nom_21-2" x1="121.09" y1="-25.86" x2="200.35" y2="114.49" xlink:href="#Dégradé_sans_nom_21"/>
    <linearGradient id="Dégradé_sans_nom_21-3" x1="121.78" y1="-26.25" x2="201.04" y2="114.1" xlink:href="#Dégradé_sans_nom_21"/>
    <linearGradient id="Dégradé_sans_nom_21-4" x1="107.29" y1="-18.07" x2="186.55" y2="122.29" xlink:href="#Dégradé_sans_nom_21"/>
    <linearGradient id="Dégradé_sans_nom_21-5" x1="116.43" y1="-23.23" x2="195.69" y2="117.13" xlink:href="#Dégradé_sans_nom_21"/>
    <linearGradient id="Dégradé_sans_nom_21-6" x1="96.99" y1="-12.25" x2="176.25" y2="128.11" xlink:href="#Dégradé_sans_nom_21"/>
    <linearGradient id="Dégradé_sans_nom_21-7" x1="103.92" y1="-16.17" x2="183.18" y2="124.19" xlink:href="#Dégradé_sans_nom_21"/>
    <linearGradient id="Dégradé_sans_nom_21-8" x1="43.18" y1="18.13" x2="122.44" y2="158.49" xlink:href="#Dégradé_sans_nom_21"/>
    <linearGradient id="Dégradé_sans_nom_21-9" x1="31.33" y1="24.83" x2="110.59" y2="165.18" xlink:href="#Dégradé_sans_nom_21"/>
    <linearGradient id="Dégradé_sans_nom_21-10" x1="62.47" y1="7.24" x2="141.73" y2="147.6" xlink:href="#Dégradé_sans_nom_21"/>
    <linearGradient id="Dégradé_sans_nom_21-11" x1="44.56" y1="17.35" x2="123.82" y2="157.71" xlink:href="#Dégradé_sans_nom_21"/>
    <linearGradient id="Dégradé_sans_nom_21-12" x1="8.68" y1="37.62" x2="87.94" y2="177.97" xlink:href="#Dégradé_sans_nom_21"/>
    <linearGradient id="Dégradé_sans_nom_21-13" x1="11.77" y1="35.87" x2="91.03" y2="176.23" xlink:href="#Dégradé_sans_nom_21"/>
    <linearGradient id="Dégradé_sans_nom_21-14" x1="17.18" y1="32.82" x2="96.44" y2="173.17" xlink:href="#Dégradé_sans_nom_21"/>
    <linearGradient id="Dégradé_sans_nom_21-15" x1="73.74" y1="0.88" x2="153" y2="141.23" xlink:href="#Dégradé_sans_nom_21"/>
    <linearGradient id="Dégradé_sans_nom_21-16" x1="4.89" y1="39.76" x2="84.15" y2="180.11" xlink:href="#Dégradé_sans_nom_21"/>
    <linearGradient id="Dégradé_sans_nom_21-17" x1="15.27" y1="33.9" x2="94.53" y2="174.25" xlink:href="#Dégradé_sans_nom_21"/>
    <linearGradient id="Dégradé_sans_nom_21-18" x1="91.91" y1="-9.38" x2="171.17" y2="130.97" xlink:href="#Dégradé_sans_nom_21"/>
    <linearGradient id="Dégradé_sans_nom_21-19" x1="58.56" y1="9.45" x2="137.81" y2="149.81" xlink:href="#Dégradé_sans_nom_21"/>
  </defs>
  <title>BOB Logo Primary</title>
  <g id="Layer_2" data-name="Layer 2">
    <g id="Layer_1-2" data-name="Layer 1">
      <g id="_Group_" data-name="&lt;Group&gt;">
        <g id="_Group_2" data-name="&lt;Group&gt;">
          <path id="_Compound_Path_" data-name="&lt;Compound Path&gt;" class="cls-1" d="M14.09,193.1a11.29,11.29,0,0,1,4.4,1.77,4.72,4.72,0,0,1,1.82,3.83,5.08,5.08,0,0,1-2,4.11c-1.63,1.31-4,2-7.12,2H0v-.61a5,5,0,0,0,2.07-.28,1.65,1.65,0,0,0,.76-.74,6.6,6.6,0,0,0,.22-2.24V186.63a6.63,6.63,0,0,0-.22-2.25,1.55,1.55,0,0,0-.77-.74A5.05,5.05,0,0,0,0,183.36v-.6H10.55a15,15,0,0,1,5.36.68,5.48,5.48,0,0,1,2.48,2,5,5,0,0,1,.91,2.85,4,4,0,0,1-1.15,2.83A8.2,8.2,0,0,1,14.09,193.1Zm-5.91.83v7.87a1.8,1.8,0,0,0,.44,1.33,1.8,1.8,0,0,0,1.33.44,5.11,5.11,0,0,0,2.39-.57A4,4,0,0,0,14,201.33a5.12,5.12,0,0,0,.58-2.45,5.37,5.37,0,0,0-.71-2.77,3.92,3.92,0,0,0-2-1.71A10.85,10.85,0,0,0,8.18,193.93Zm0-1.27a8.49,8.49,0,0,0,3.4-.51,3.9,3.9,0,0,0,1.68-1.47,5.2,5.2,0,0,0,0-4.79,3.54,3.54,0,0,0-1.65-1.42A8.47,8.47,0,0,0,8.18,184Z"/>
          <path id="_Compound_Path_2" data-name="&lt;Compound Path&gt;" class="cls-1" d="M36.21,198.51H28.43l-.92,2.14a4.71,4.71,0,0,0-.46,1.77,1.46,1.46,0,0,0,.75,1.36,5.94,5.94,0,0,0,2.16.39v.61H22.64v-.61a3.18,3.18,0,0,0,1.94-1,12.92,12.92,0,0,0,1.89-3.32l7.87-17.56h.31l7.94,18.05a11,11,0,0,0,1.86,3.23,2.51,2.51,0,0,0,1.56.58v.61H35.36v-.61h.44a3.29,3.29,0,0,0,1.8-.35.87.87,0,0,0,.36-.75,1.89,1.89,0,0,0-.1-.6c0-.1-.18-.5-.48-1.22Zm-.55-1.2-3.28-7.58L29,197.31Z"/>
          <path id="_Compound_Path_3" data-name="&lt;Compound Path&gt;" class="cls-1" d="M68.28,197.05l-.83,7.73H47.9v-.61h.73a3,3,0,0,0,1.54-.34,1.43,1.43,0,0,0,.65-.78,6.57,6.57,0,0,0,.18-2V186.53a7.15,7.15,0,0,0-.18-2.11,1.64,1.64,0,0,0-.72-.74,2.91,2.91,0,0,0-1.47-.32H47.9v-.6H59.64v.6h-1a3.11,3.11,0,0,0-1.54.34,1.59,1.59,0,0,0-.67.78,6.65,6.65,0,0,0-.18,2.05v14a7.1,7.1,0,0,0,.2,2.16,1.34,1.34,0,0,0,.76.69,8.29,8.29,0,0,0,2,.14h1.83a6.1,6.1,0,0,0,2.92-.62A5.5,5.5,0,0,0,66,201a16.26,16.26,0,0,0,1.61-3.93Z"/>
          <path id="_Compound_Path_4" data-name="&lt;Compound Path&gt;" class="cls-1" d="M91.35,197.05l-.83,7.73H71v-.61h.73a3,3,0,0,0,1.54-.34,1.47,1.47,0,0,0,.65-.78,6.57,6.57,0,0,0,.18-2V186.53a7.15,7.15,0,0,0-.18-2.11,1.64,1.64,0,0,0-.72-.74,3,3,0,0,0-1.47-.32H71v-.6H82.71v.6h-.95a3.15,3.15,0,0,0-1.55.34,1.53,1.53,0,0,0-.66.78,6.65,6.65,0,0,0-.18,2.05v14a7.22,7.22,0,0,0,.19,2.16,1.36,1.36,0,0,0,.77.69,8.18,8.18,0,0,0,2,.14h1.84a6.13,6.13,0,0,0,2.92-.62,5.48,5.48,0,0,0,2-1.94,15.49,15.49,0,0,0,1.61-3.93Z"/>
          <path id="_Compound_Path_5" data-name="&lt;Compound Path&gt;" class="cls-1" d="M106.27,182.45a10.93,10.93,0,0,1,11.84,11.24,11.76,11.76,0,0,1-2.45,7.37,10.91,10.91,0,0,1-9.17,4.22q-6,0-9.19-4a11.65,11.65,0,0,1-2.57-7.55,11,11,0,0,1,3.34-8.17A10.62,10.62,0,0,1,106.27,182.45Zm.2,1a5,5,0,0,0-4.6,3.09,16.55,16.55,0,0,0-1.28,7.27c0,3.76.66,6.53,2,8.33a4.53,4.53,0,0,0,3.87,1.88,4.65,4.65,0,0,0,2.79-.81,6.67,6.67,0,0,0,2.22-3.32,18.42,18.42,0,0,0,.8-6,19.77,19.77,0,0,0-.81-6.53,6.29,6.29,0,0,0-2.07-3.06A4.87,4.87,0,0,0,106.47,183.49Z"/>
          <path id="_Compound_Path_6" data-name="&lt;Compound Path&gt;" class="cls-1" d="M133,182.45a10.93,10.93,0,0,1,11.84,11.24,11.76,11.76,0,0,1-2.45,7.37,10.93,10.93,0,0,1-9.18,4.22q-5.94,0-9.18-4a11.65,11.65,0,0,1-2.57-7.55,11,11,0,0,1,3.34-8.17A10.62,10.62,0,0,1,133,182.45Zm.2,1a5,5,0,0,0-4.6,3.09,16.55,16.55,0,0,0-1.28,7.27c0,3.76.66,6.53,2,8.33a4.53,4.53,0,0,0,3.87,1.88,4.65,4.65,0,0,0,2.79-.81,6.67,6.67,0,0,0,2.22-3.32,18.42,18.42,0,0,0,.8-6,19.77,19.77,0,0,0-.81-6.53,6.43,6.43,0,0,0-2.07-3.06A4.87,4.87,0,0,0,133.23,183.49Z"/>
          <path id="_Compound_Path_7" data-name="&lt;Compound Path&gt;" class="cls-1" d="M155.23,182.76l10.86,13.65V187a4.48,4.48,0,0,0-.57-2.68,3.14,3.14,0,0,0-2.61-.91v-.6h7.27v.6a5.8,5.8,0,0,0-1.87.46,1.87,1.87,0,0,0-.75.93,6.27,6.27,0,0,0-.27,2.2v18.33h-.55L151.85,187v14a3.09,3.09,0,0,0,.87,2.57,3.2,3.2,0,0,0,2,.66h.52v.61h-7.81v-.61a2.71,2.71,0,0,0,3.25-3.23V185.41l-.47-.59a4.3,4.3,0,0,0-1.24-1.15,3.71,3.71,0,0,0-1.54-.31v-.6Z"/>
          <path id="_Compound_Path_8" data-name="&lt;Compound Path&gt;" class="cls-1" d="M187.48,182.26l.18,7.34H187a7.48,7.48,0,0,0-2.31-4.44,5.83,5.83,0,0,0-4-1.68,3.72,3.72,0,0,0-2.62.88,2.72,2.72,0,0,0-1,2,2.57,2.57,0,0,0,.34,1.3,5.66,5.66,0,0,0,1.51,1.51,36.24,36.24,0,0,0,3.53,1.9,15.73,15.73,0,0,1,5.21,3.58,6.08,6.08,0,0,1,1.33,3.87,6.27,6.27,0,0,1-2.15,4.75,7.77,7.77,0,0,1-5.46,2,8.88,8.88,0,0,1-2-.21,14.48,14.48,0,0,1-2.32-.79,3.48,3.48,0,0,0-1.28-.33,1.61,1.61,0,0,0-.9.33,2.26,2.26,0,0,0-.76,1h-.6V197h.6a9.58,9.58,0,0,0,2.75,5.35,6.49,6.49,0,0,0,4.39,1.84,4.11,4.11,0,0,0,2.9-1,3,3,0,0,0,1.08-2.31,3.09,3.09,0,0,0-.41-1.51,4.87,4.87,0,0,0-1.26-1.38,19.15,19.15,0,0,0-3-1.72,26,26,0,0,1-4.32-2.51,7.85,7.85,0,0,1-2-2.33,5.73,5.73,0,0,1-.7-2.82,6,6,0,0,1,1.93-4.48,6.77,6.77,0,0,1,4.87-1.85,8,8,0,0,1,2.08.26,10.45,10.45,0,0,1,1.86.72,4.44,4.44,0,0,0,1.53.53.9.9,0,0,0,.67-.26,3,3,0,0,0,.45-1.25Z"/>
        </g>
        <g id="_Group_3" data-name="&lt;Group&gt;">
          <path id="_Compound_Path_9" data-name="&lt;Compound Path&gt;" class="cls-1" d="M22.44,220.47a7.23,7.23,0,0,1,5.36,2.35,8.1,8.1,0,0,1,2.27,5.87,8.38,8.38,0,0,1-2.28,6,7.4,7.4,0,0,1-5.54,2.39,7.36,7.36,0,0,1-5.52-2.33,8.42,8.42,0,0,1-2.23-6,8,8,0,0,1,2.58-6.18A7.63,7.63,0,0,1,22.44,220.47Zm-.22.86a4.21,4.21,0,0,0-3.43,1.58,9,9,0,0,0-1.6,5.77,9.43,9.43,0,0,0,1.66,6,4.1,4.1,0,0,0,3.38,1.6,4.65,4.65,0,0,0,3.7-1.75q1.45-1.74,1.46-5.51,0-4.08-1.61-6.09A4.34,4.34,0,0,0,22.22,221.33Z"/>
          <path id="_Compound_Path_10" data-name="&lt;Compound Path&gt;" class="cls-1" d="M48.69,220.84v.43a2.53,2.53,0,0,0-1.27.54,4.76,4.76,0,0,0-1.11,1.76L40.77,237.1h-.44l-5.95-13.71a7.75,7.75,0,0,0-.65-1.29,1.9,1.9,0,0,0-.72-.56,3.24,3.24,0,0,0-1.15-.27v-.43h6.49v.43a3,3,0,0,0-1.43.38.85.85,0,0,0-.33.69,5.31,5.31,0,0,0,.54,1.83l4,9.32,3.75-9.21a6,6,0,0,0,.55-1.88.86.86,0,0,0-.34-.65,2.17,2.17,0,0,0-1.15-.44l-.2,0v-.43Z"/>
          <path id="_Compound_Path_11" data-name="&lt;Compound Path&gt;" class="cls-1" d="M54.65,221.7V228h3.5a2.9,2.9,0,0,0,1.82-.41,2.68,2.68,0,0,0,.68-1.9h.43v5.53h-.43a6.1,6.1,0,0,0-.33-1.49,1.49,1.49,0,0,0-.69-.64,3.51,3.51,0,0,0-1.48-.23h-3.5v5.24a4.84,4.84,0,0,0,.1,1.28.72.72,0,0,0,.33.36,1.94,1.94,0,0,0,.89.14h2.69a7.06,7.06,0,0,0,2-.19,2.78,2.78,0,0,0,1.17-.74,8.5,8.5,0,0,0,1.49-2.19h.47l-1.37,4H50.13v-.44h.56a2.24,2.24,0,0,0,1.07-.27,1,1,0,0,0,.51-.56,5.58,5.58,0,0,0,.13-1.54V223.6a3.46,3.46,0,0,0-.3-1.86,1.83,1.83,0,0,0-1.41-.47h-.56v-.43H62.38l.18,3.48H62.1a5.26,5.26,0,0,0-.55-1.72,1.82,1.82,0,0,0-.88-.72A5.16,5.16,0,0,0,59,221.7Z"/>
          <path id="_Compound_Path_12" data-name="&lt;Compound Path&gt;" class="cls-1" d="M81.18,236.74H76.94l-5.39-7.44-1,0h-.33l-.36,0v4.62a3.27,3.27,0,0,0,.33,1.87,1.66,1.66,0,0,0,1.33.51h.62v.44H65.36v-.44H66a1.61,1.61,0,0,0,1.44-.65,3.65,3.65,0,0,0,.25-1.73V223.65a3.21,3.21,0,0,0-.33-1.86,1.7,1.7,0,0,0-1.36-.52h-.6v-.43h5.8a13.62,13.62,0,0,1,3.73.37,4.24,4.24,0,0,1,2,1.36,3.54,3.54,0,0,1,.84,2.36,3.69,3.69,0,0,1-1,2.54,5.41,5.41,0,0,1-3,1.53l3.28,4.56a8.22,8.22,0,0,0,1.94,2.09,4.87,4.87,0,0,0,2.11.65Zm-11.29-8.18h.66a5.13,5.13,0,0,0,3.42-1,3.16,3.16,0,0,0,1.16-2.51,3.28,3.28,0,0,0-.93-2.42,3.35,3.35,0,0,0-2.47-.93,10.15,10.15,0,0,0-1.84.22Z"/>
          <path id="_Compound_Path_13" data-name="&lt;Compound Path&gt;" class="cls-1" d="M99.36,228.62a5.08,5.08,0,0,1,2.47,1.13,3.5,3.5,0,0,1,1.14,2.64,3.9,3.9,0,0,1-.75,2.26,4.21,4.21,0,0,1-2.06,1.59,12,12,0,0,1-4,.5h-7.5v-.44h.6a1.62,1.62,0,0,0,1.43-.63,3.66,3.66,0,0,0,.27-1.75V223.65a3.28,3.28,0,0,0-.34-1.86,1.71,1.71,0,0,0-1.36-.52h-.6v-.43h6.87a13.4,13.4,0,0,1,3.08.28,5,5,0,0,1,2.69,1.49,3.71,3.71,0,0,1,.92,2.47,3.43,3.43,0,0,1-.72,2.14A4.24,4.24,0,0,1,99.36,228.62ZM93.22,228a8.39,8.39,0,0,0,1,.12c.37,0,.78,0,1.22,0a6.84,6.84,0,0,0,2.58-.37,2.76,2.76,0,0,0,1.32-1.13,3.21,3.21,0,0,0,.45-1.66,3,3,0,0,0-1.13-2.38,4.93,4.93,0,0,0-3.32-1,8,8,0,0,0-2.11.26Zm0,7.6a11.8,11.8,0,0,0,2.68.31,4.84,4.84,0,0,0,3.24-1,3,3,0,0,0,1.11-2.36,3.54,3.54,0,0,0-.5-1.79,3.45,3.45,0,0,0-1.64-1.35,7.27,7.27,0,0,0-2.82-.49c-.48,0-.9,0-1.24,0a5.28,5.28,0,0,0-.83.08Z"/>
          <path id="_Compound_Path_14" data-name="&lt;Compound Path&gt;" class="cls-1" d="M115.92,231.41h-6.16l-1.08,2.51a4.05,4.05,0,0,0-.39,1.39.81.81,0,0,0,.34.64,3,3,0,0,0,1.5.35v.44h-5v-.44a2.59,2.59,0,0,0,1.29-.46,7.12,7.12,0,0,0,1.33-2.28l5.59-13.09h.41l5.53,13.23a6.05,6.05,0,0,0,1.22,2.07,2.44,2.44,0,0,0,1.51.53v.44h-6.27v-.44A2.37,2.37,0,0,0,117,236a.82.82,0,0,0,.33-.66,5,5,0,0,0-.47-1.63Zm-.33-.86-2.7-6.43-2.76,6.43Z"/>
          <path id="_Compound_Path_15" data-name="&lt;Compound Path&gt;" class="cls-1" d="M137.66,220.47l.41,5h-.41a6.74,6.74,0,0,0-1.61-2.82,5,5,0,0,0-3.64-1.38,5.18,5.18,0,0,0-4.62,2.41,8.57,8.57,0,0,0-1.33,4.83,9.73,9.73,0,0,0,.88,4.15,6.2,6.2,0,0,0,2.31,2.75,5.53,5.53,0,0,0,2.92.87,6.39,6.39,0,0,0,1.7-.22,6.61,6.61,0,0,0,1.58-.66v-4.59a4.32,4.32,0,0,0-.18-1.57,1.26,1.26,0,0,0-.56-.56,3.23,3.23,0,0,0-1.34-.19v-.45h6.15v.45h-.29a1.3,1.3,0,0,0-1.25.6,4.09,4.09,0,0,0-.24,1.72v4.86a11.76,11.76,0,0,1-2.66,1.07,11.53,11.53,0,0,1-2.92.34,8.48,8.48,0,0,1-7-3,7.85,7.85,0,0,1-1.79-5.11,8.55,8.55,0,0,1,1-4,8.68,8.68,0,0,1,3.29-3.52,8,8,0,0,1,4.13-1,8.41,8.41,0,0,1,1.57.14,15.49,15.49,0,0,1,2,.63,3.32,3.32,0,0,0,.88.24.47.47,0,0,0,.38-.2,1.61,1.61,0,0,0,.2-.81Z"/>
          <path id="_Compound_Path_16" data-name="&lt;Compound Path&gt;" class="cls-1" d="M151.9,231.41h-6.16l-1.08,2.51a4.05,4.05,0,0,0-.39,1.39.81.81,0,0,0,.34.64,3,3,0,0,0,1.5.35v.44h-5v-.44a2.63,2.63,0,0,0,1.29-.46,7,7,0,0,0,1.32-2.28l5.6-13.09h.41l5.53,13.23a6.05,6.05,0,0,0,1.22,2.07,2.42,2.42,0,0,0,1.51.53v.44h-6.27v-.44A2.33,2.33,0,0,0,153,236a.81.81,0,0,0,.34-.66,5,5,0,0,0-.47-1.63Zm-.33-.86-2.7-6.43-2.76,6.43Z"/>
          <path id="_Compound_Path_17" data-name="&lt;Compound Path&gt;" class="cls-1" d="M158.58,220.84h4.32l9.72,11.92v-9.17a3.18,3.18,0,0,0-.33-1.83,1.74,1.74,0,0,0-1.37-.49h-.55v-.43h5.53v.43h-.56a1.61,1.61,0,0,0-1.43.61,3.57,3.57,0,0,0-.26,1.71V237h-.42l-10.48-12.8V234a3.27,3.27,0,0,0,.31,1.83,1.77,1.77,0,0,0,1.38.49H165v.44h-5.54v-.44H160a1.61,1.61,0,0,0,1.44-.61,3.57,3.57,0,0,0,.26-1.71V222.92a8.57,8.57,0,0,0-1.05-1.06,3.71,3.71,0,0,0-1-.48,3.76,3.76,0,0,0-1-.11Z"/>
        </g>
        <g id="_Group_4" data-name="&lt;Group&gt;">
          <g id="_Group_5" data-name="&lt;Group&gt;">
            <path id="_Path_" data-name="&lt;Path&gt;" class="cls-2" d="M90,141.25c4.47,7.93,6.61-3.7,5.49-6.4-3.51-8.53-7-17.23-12-25-6.81-10.67-15.71-20-22.24-30.84-5.66-9.38-2.77-18,7-22.82,16.51-8.18,33.51-9.18,50.17-2.83.75.28,1.77-.92,1.6-1.86-.23-1.28,0-5.35-4.18-6.42-.4-.1-.78-.25-1.16-.37C89.65,37,69.67,46.89,65,49.16,49.23,56.91,44.48,70.43,52.19,86.24a82.67,82.67,0,0,0,9,13.82c8.15,10.58,18.58,19.74,22.1,33.2.49,1.87.86,5.63,1.69,7C86.64,143,85.25,132.75,90,141.25Z"/>
            <path id="_Path_2" data-name="&lt;Path&gt;" class="cls-2" d="M119.77,107c-5.36,7.06-17.59,20.78-19.54,35l2.41.75c-.77-9,13.36-26.48,22.58-37.24C129,101.12,122.57,103.29,119.77,107Z"/>
            <path id="_Path_3" data-name="&lt;Path&gt;" class="cls-2" d="M88.57,144.64c0-.81-1.81.4-2.51,0,0,5.58-.44,10.21.22,14.7.16,1.1.71,1.54,1.41,1.64l.21,0c1.62.06,3.91-1.48,4.46-1.51,7.63-.36,9.35,1.94,10.28.07-.09-5.76.72-9.3-1.07-11.19C99,145.67,88.71,150,88.57,144.64Z"/>
            <g id="_Group_6" data-name="&lt;Group&gt;">
              <path id="_Path_4" data-name="&lt;Path&gt;" class="cls-3" d="M146.11,69.36a57.92,57.92,0,0,1-6.8-7.28c-5.28-6.41-5.55-15.94-.35-22a13.93,13.93,0,0,1,6.39-4c3.28-1,7.52,2,7.5,4.84,0,4-2.94,4.31-6.07,3.9.74,3.9,2.41,5.29,5.77,5a7.73,7.73,0,0,0,7.32-7.26c.58-9.25-8.48-15.79-17.56-12.38a23.07,23.07,0,0,0-6.38,3.53c8.68-9.17,7.29-16,4.84-19.66-1.1-.75-2.21-1.47-3.35-2.17,2.9,8.22-5.64,16.56-7.42,18.84-15.31,19.56,1.86,36.59,10.42,42.75.9.65,4.54,3,3,2.77-2.5-.37-8.78-1.54-15.24.42-6.25,1.9-10.08,6.76-10,12.64.14,7.37,7.32,12.49,13.87,9.9,3.72-1.48,6.13-6.4,4.56-9.59-2.21-4.51-4.87-2.2-7.49.15a6,6,0,0,1,4.33-6.92c8.89-2.94,16.71,0,22.08,9.12.63.87,3.16,7.34,3.77,8.79,6.64,19.53-7,30.75-16.5,31a7.51,7.51,0,0,1-7.42-4.62c3.26,2.89,8,4,11.89,2.05,19-9.3,8.68-36.43.72-39-.38-.13-5.61,6.73,0,12.31,9.08,9,5.45,15.52,5.45,15.62-1.14-3.68-1.09-5.74-2.66-7.93s-3.31-1.08-3.37-1c-1.15,1.12-.69,2.53.28,3.51a10.84,10.84,0,0,1,3.07,5.72,8,8,0,0,1-9.24,9.3c-.29,0-3.68-.57-5.54-2.89-.66-.89-1.31-2.53.26-4.68a8.41,8.41,0,0,1,9.85-2.06c-1.12-4.69-4.25-6.37-8.28-6.7-5.66-.46-10.2,2.89-12,8.62a12.79,12.79,0,0,0,6,15.67c5.88,3.44,13.92,3.47,20.73,2a81,81,0,0,0,16.83-24.77C168.67,103.75,164.56,85.17,146.11,69.36Z"/>
              <path id="_Path_5" data-name="&lt;Path&gt;" class="cls-4" d="M156.09,27.67c-1-1.18-2.09-2.34-3.19-3.46a3.13,3.13,0,0,1-2.32-1c.15-.29.31-.58.47-.86q-2.55-2.45-5.31-4.66l-.08.05c-2.19,1.72-2.08,5.38-.19,7.84C148,28.87,152.53,29.41,156.09,27.67Z"/>
              <path id="_Path_6" data-name="&lt;Path&gt;" class="cls-5" d="M174.12,63.46q-.66-3-1.54-6c-.23-.29-.47-.58-.69-.91a6.51,6.51,0,0,1-1.09-4.38C170,50,169,47.81,168,45.69a6.64,6.64,0,0,0-1,1.42c-2.33,4.64-1,8.57,2.61,12.07a6.18,6.18,0,0,1-2.12-1.12,9.74,9.74,0,0,1-.48-14.2q-1.67-3.26-3.62-6.33c-2.45,4.73-3.26,9.84-1.7,16.37C163.1,59.47,168.42,63.11,174.12,63.46Z"/>
              <path id="_Path_7" data-name="&lt;Path&gt;" class="cls-6" d="M173.49,83.26c-.26-.54-3.28,4.52-5.4,2.65,0,0-.05-.1-.08-.14a66.54,66.54,0,0,0-5.6-8.42,19.31,19.31,0,0,1-1.91-7.61c0-1.84.33-4.22-.62-2.65-.67,1.12-1,2.58-1,2A15,15,0,0,1,160,63.42c1.8-4.27-4-9.6-4.22-9.4-1.07.88-5.26,6.39-1.45,14.3l-2.8-2.8c-2.4-2.39-4.48-4.45-6.11-6.44a11.46,11.46,0,0,1-1.19-1.73,4.94,4.94,0,0,0,.86.11,3.84,3.84,0,1,0,.27-7.65,4.29,4.29,0,0,0-3.06,1.11l0-.05c-.94,1-3.67,4.56.87,10.09,1.73,2.1,4,4.31,6.32,6.66,8.26,8.2,19.39,19.28,22.36,38.53.68-2,1.27-4.06,1.79-6.14a58.33,58.33,0,0,0-2.45-7.6C170.1,89.76,174.09,84.49,173.49,83.26Z"/>
              <path id="_Path_8" data-name="&lt;Path&gt;" class="cls-7" d="M175.7,74.28A5.29,5.29,0,0,1,173,74a3.78,3.78,0,0,1-2-2.4c2.2.36,4.41.69,4.05-2.47-.25-2.24-3.21-4-5.7-3.56-4.38.84-6.46,6-4,10,1.94,3.18,5.65,4.46,9.62,3.34.31-.08.61-.19.9-.29C175.89,77.15,175.81,75.71,175.7,74.28Z"/>
              <path id="_Path_9" data-name="&lt;Path&gt;" class="cls-8" d="M94.57,17.89c0-1.72,1.75-3.43,1.75-5.15,2.34,5.72,9.35,13.72,16.36,9.15a5.7,5.7,0,0,1-.59-1.72c20.19,6.62,19.28-9.14,18.69-10.29-4.75,17-28.29,0-32.72-9.81C97.17,0,96.29,0,95.4,0h-.2l-.7,0c2.93,9.14,13.28,16.74,10.34,14.84a33.54,33.54,0,0,1-12-13.55,2.81,2.81,0,0,0-1-1.22l-1.09,0c-1.5,1-2.67,5.44-2.59,7.35C88.41,13.57,93.4,16.17,94.57,17.89Z"/>
              <path id="_Path_10" data-name="&lt;Path&gt;" class="cls-9" d="M119.38,11.85c-.42-.95-1.87-3.65-2.28-4.58.12-.17,5.76,6.7,12,.23a80,80,0,0,0-19.63-6.23c.94,1,2.1,2.16,6.61,3.58,0,0-2.92.55-9.71-4.07-1.3-.19-2.61-.33-3.93-.45l-1-.08C102.74,2.18,110.67,12.42,119.38,11.85Z"/>
              <path id="_Path_11" data-name="&lt;Path&gt;" class="cls-10" d="M41.67,39.25C72.57,22.66,83,5.67,85.61.6A80.16,80.16,0,0,0,64.06,6.27,29.44,29.44,0,0,0,60,11.46C56.6,17,55.07,23.82,54.74,23.94c-1,.34-.44-5.89,1.68-11a23.28,23.28,0,0,1,2.25-4.1A81,81,0,0,0,38.31,23.58c-.24.41-.49.83-.72,1.27-3.66,7.1-5.13,16.39-5.4,15.35a19,19,0,0,1,.58-10.49A80.33,80.33,0,0,0,16.48,63.5C21,54.09,29.76,45.65,41.67,39.25Z"/>
              <path id="_Compound_Path_18" data-name="&lt;Compound Path&gt;" class="cls-11" d="M66.59,111.64c-.32-.37-6,19.1-21.88,17.39l-1-.09a26.56,26.56,0,0,1-7.41-2.54,27.38,27.38,0,0,1-5.39-3.56A32.57,32.57,0,0,1,27.22,119a17,17,0,0,1-3.15-7.12,13,13,0,0,1-.08-4,7,7,0,0,0,5.84-.52,7,7,0,0,0,3-5,7,7,0,0,0-5.85.52A6.65,6.65,0,0,0,24.16,107,13.49,13.49,0,0,1,28,100.31a20.4,20.4,0,0,0,2.33-2.75c.21,0,.41-.14.66-.41a10.77,10.77,0,0,0,2.57-9c-.08-.66-.18-1.33-.3-2a15.93,15.93,0,0,0-.35-2c-.21-1.11-.44-2.22-.64-3.33-.09-.53-.17-1.06-.26-1.58l.19,0c.38,1,.78,2.06,1.14,3.1a26.71,26.71,0,0,1,1.89,7.93,9.29,9.29,0,0,1-2.61,7c-.14.15-.28.31-.41.47a2.56,2.56,0,0,0,.11.24,14.42,14.42,0,0,0,3-.9c2.68-1.49,3.76-4,3.93-6.94.14-2.29-.79-4.38-1.67-6.45-1.7-4-4-7.74-4.91-12.11-.14.07-.2.08-.22.11-2.5,3.5-4.87,7.07-6.17,11.22a14.71,14.71,0,0,0-.54,7.78,12.3,12.3,0,0,0,3.28,5.81,18.67,18.67,0,0,1-2.18,2.6,16.15,16.15,0,0,0-1.41,1.6,6.81,6.81,0,0,0,.13-1.55,5.33,5.33,0,0,0-2.34-4.33,8.82,8.82,0,0,0-2,5.51,5.34,5.34,0,0,0,2.05,4.1,14.26,14.26,0,0,0-.79,7.65,34.15,34.15,0,0,1-3-21.35c1.52-8.44,7.08-16.19,12.69-22.25.83-.9-2.61-1-6.08-.08a61.05,61.05,0,0,0-7.49,3c6.8-6.79,16.35-5.77,17-6.35a88.12,88.12,0,0,1,10.74-8.8,149.57,149.57,0,0,0,14.52-11.8A40.58,40.58,0,0,0,39.11,47c-.21.08.39-.23.58-.34C54.74,38.1,64,41.35,64.06,41.27,82.78,22.4,82.57,8.94,82.57,8.94s-4,13.06-32.7,28.91c-.38.21-.77.4-1.17.61-5.68,2.94-12.59,6.39-19,12C21.94,57.31,17.3,66.54,15,73.22c-.22,2.45-.35,4.94-.35,7.45a80.41,80.41,0,0,0,25.58,58.91,13.62,13.62,0,0,0,9.65-.84c-.14,1.66-1,4.66-1.45,7.56a81.41,81.41,0,0,0,6.85,4.4c2.17-14.58,11.14-24.27,14.87-34.76C69,114.5,67.8,113.07,66.59,111.64ZM26.47,106a9.29,9.29,0,0,1,2.38-.74,9,9,0,0,1-2.13,1.29,9.47,9.47,0,0,1-2.39.74A9.24,9.24,0,0,1,26.47,106Zm-2.81-4.25a11.77,11.77,0,0,1-.45,2.41,10.55,10.55,0,0,1-.05-2.36,11.9,11.9,0,0,1,.45-2.41A10,10,0,0,1,23.66,101.75Z"/>
              <path id="_Path_12" data-name="&lt;Path&gt;" class="cls-12" d="M136.6,150c1.73-1,3.42-2.14,5.06-3.29l-2-.45c-.52-.12-1-.26-1.55-.39,0-.06,0-.12,0-.18,1.1.06,2.21.1,3.31.18l1.26.1q2.2-1.6,4.29-3.34a79.64,79.64,0,0,1-17.61-2.6C129.38,140.15,134.13,147.07,136.6,150Z"/>
              <path id="_Path_13" data-name="&lt;Path&gt;" class="cls-13" d="M119.63,120.37c-14.39,16.92-13.2,38-11.21,39.9a81.12,81.12,0,0,0,11-2.57c8.14-7-3.42-20.57-1.37-18.75a19.4,19.4,0,0,1,6.46,16.94c1.87-.72,3.72-1.5,5.52-2.36a16.07,16.07,0,0,0-3.31-8.47C123.92,141.16,116.63,130.9,119.63,120.37Z"/>
              <path id="_Path_14" data-name="&lt;Path&gt;" class="cls-14" d="M76.34,135.31c.09-.37.19-.77.26-1.17A9.49,9.49,0,0,0,73,125.05c2.3,10.71-8.8,15.18-11.8,18.89a16.35,16.35,0,0,0-3.82,7.95c1.74.93,3.52,1.78,5.33,2.59a7.22,7.22,0,0,1,2.84-5.61,7,7,0,0,1,8.07.52c2.1,1.64,2.74,4.43,1.21,6.37a4.7,4.7,0,0,1-2.73,1.42c-.6.1-1.34-.63-1.48-.7,5.42,0,3.32-6.43-.8-5.56-1.33.28-4.48,2.61-2.6,5.4a79.83,79.83,0,0,0,11.83,3.39,8.36,8.36,0,0,0,3.08-6.3,10.6,10.6,0,0,0-3.15-7.9C82,140.25,81.8,139.4,76.34,135.31Z"/>
              <path id="_Path_15" data-name="&lt;Path&gt;" class="cls-15" d="M69,125.05c-2.81,2.76-6.91,12.24-6.91,12.24C72.05,134.19,69,125.05,69,125.05Z"/>
              <path id="_Path_16" data-name="&lt;Path&gt;" class="cls-16" d="M42.25,83.06c-.46,0-2.8-.79-2.8-.79-1.11,4.77,3,11.67,7.43,14-1.37-.15-2.89,1.11-4.26,1,1.27,1.08,2.94,5.28,7.78,6,1.54.22,6.47-.74,7.33-1.88,0-.27-18.9-19.24-11.38-36.27C46.6,64.52,36.5,72.78,42.25,83.06Z"/>
              <path id="_Path_17" data-name="&lt;Path&gt;" class="cls-17" d="M104.55,36.85c-1.15-.19-2.37-.31-3.56-.59A7.49,7.49,0,0,1,95,29a5.79,5.79,0,0,1,1.14-3.57c.77-.95,2.18-1.39,3.31-2-2-2.86-4.22-3.07-6.95-.49-1.66-2.68-4.22-3.5-7.2-3.45a2.32,2.32,0,0,0-2.5,1.81c-1,2.59-1.42,5,.53,7.34-2.48.67-3.76,1.57-3.94,3.25A11.45,11.45,0,0,0,80,35.09l.57.06c.68-1.9,1.7-1.71,2.89-.67a18.19,18.19,0,0,0,1.7,1.34c3.11,2.15,7.88,2.94,10.74,1.82-4.6-3.92-6.2-6-7-9C96.28,37.08,99.27,38.63,104.55,36.85Z"/>
              <path id="_Path_18" data-name="&lt;Path&gt;" class="cls-18" d="M48,118.57c6.47,2.52,11.22.39,14.21-2.6-1.23.41-2.49.92-3.79,1.26a8.3,8.3,0,0,1-9.63-4,6.4,6.4,0,0,1-.72-4.08c.26-1.34,1.41-2.49,2.17-3.73-3.43-1.76-5.71-.82-7,3.13-3-1.78-4.84-1.81-7.73-.22-1.25.68-3.72-2.9-2.63,3.61.51,3,1.2,5.64,4.32,6.93-2.08,1.93.92,5,3.21,5.71a24.78,24.78,0,0,0,3.33,1c4.15.5,11.83,0,14.49-5.3a15.94,15.94,0,0,1-13.91-1.35C41.81,117.38,44.39,117.17,48,118.57Z"/>
              <circle id="_Path_19" data-name="&lt;Path&gt;" class="cls-19" cx="57.73" cy="109.1" r="4.05"/>
              <path id="_Path_20" data-name="&lt;Path&gt;" class="cls-20" d="M125.38,26.14A4,4,0,0,0,124,23.56c-.51-.32-1.83.2-2.51.71a40.83,40.83,0,0,0-3.62,3.57c-.28-1.57-.46-2.59-.87-4.83-1.8,1.77-3.43,2.77-4.19,4.23-2.29,4.39-3.69,5.13-8.33,3.43-1.61-.59-3.16-1.36-4.8-2.08,1.55,3.61,8.12,7.6,12.62,7.54,5.47-.08,9.81-2.36,12.6-7.18A4.51,4.51,0,0,0,125.38,26.14Z"/>
              <path id="_Path_21" data-name="&lt;Path&gt;" class="cls-21" d="M68.44,44.29a38.75,38.75,0,0,1,17.2-4.19C73,33.92,68.44,44.29,68.44,44.29Z"/>
            </g>
          </g>
        </g>
      </g>
    </g>
  </g>
</svg>
